<svg width="156" height="18" viewBox="0 0 156 18" fill="none" xmlns="http://www.w3.org/2000/svg">
<g clip-path="url(#clip0_1149_23356)">
<path d="M0 0.323686H4.35657C5.80772 0.221944 7.26321 0.446139 8.61729 0.979982C9.55099 1.42054 10.3385 2.122 10.8855 3.00039C11.4325 3.87878 11.7159 4.89688 11.7017 5.93283C11.7019 7.31028 11.1631 8.63264 10.2015 9.61479C9.23981 10.597 7.93236 11.1602 6.56099 11.1832L11.4403 17.6586H9.30563L3.43298 9.78309C4.67926 9.87837 5.93271 9.78992 7.15349 9.52057C7.87932 9.32559 8.5317 8.91977 9.02884 8.35398C9.52598 7.7882 9.84577 7.08762 9.94812 6.34007C10.0505 5.59252 9.93082 4.83126 9.60418 4.15172C9.27754 3.47217 8.75843 2.90458 8.11193 2.52009C7.06946 2.00319 5.90802 1.77655 4.74866 1.86379H1.74263V17.6149H0V0.323686Z" fill="#004FB5"/>
<path d="M50.3535 0.32373H53.0197L59.3106 15.1123L65.6189 0.32373H68.2852V17.6937H66.56V2.22261H66.5077L60.0338 17.6937H58.5613L52.131 2.22261H52.0874V17.6937H50.3535V0.32373Z" fill="#004FB5"/>
<path d="M71.8839 12.8372C71.9074 13.7534 72.2818 14.6252 72.9291 15.2713C73.5763 15.9174 74.4467 16.288 75.3591 16.306C76.2716 16.3241 77.1558 15.9881 77.8279 15.3681C78.5 14.7481 78.9082 13.8918 78.9676 12.9772C78.9676 10.2995 76.2753 9.61696 75.1077 9.26693C73.5393 8.7944 70.6204 8.13811 70.6204 4.69037C70.6204 3.40464 71.129 2.17157 72.0343 1.26243C72.9395 0.353282 74.1673 -0.157471 75.4475 -0.157471C76.7277 -0.157471 77.9555 0.353282 78.8608 1.26243C79.766 2.17157 80.2746 3.40464 80.2746 4.69037H78.532C78.5344 3.86702 78.2139 3.07582 77.64 2.48792C77.066 1.90003 76.2847 1.56269 75.465 1.5489C75.0545 1.53096 74.6447 1.59747 74.2608 1.74434C73.8769 1.89121 73.5269 2.11534 73.2323 2.40298C72.9377 2.69061 72.7048 3.03567 72.5479 3.41698C72.3909 3.79829 72.3132 4.2078 72.3195 4.62036C72.3195 6.72926 74.1667 7.24554 76.4321 7.88434C80.6841 9.03067 80.658 12.3909 80.658 12.9072C80.6535 13.5881 80.5141 14.2612 80.2479 14.8874C79.9816 15.5136 79.5939 16.0803 79.1072 16.5544C78.6206 17.0285 78.0448 17.4005 77.4134 17.6487C76.7821 17.8969 76.1079 18.0163 75.4301 18C73.1821 18 70.2022 16.6612 70.0977 12.8372H71.8839Z" fill="#004FB5"/>
<path d="M89.7459 1.89884H85.7727V0.32373H95.4269V1.89884H91.4711V17.6937H89.7459V1.89884Z" fill="#004FB5"/>
<path d="M126.34 10.5884H135.054C134.719 12.0427 133.94 13.3557 132.826 14.3436C131.712 15.3315 130.318 15.9449 128.84 16.0979C127.361 16.251 125.872 15.9361 124.581 15.1972C123.29 14.4583 122.26 13.3325 121.638 11.9773C121.015 10.622 120.829 9.10513 121.107 7.63883C121.385 6.17254 122.113 4.8302 123.188 3.79962C124.263 2.76905 125.632 2.1018 127.104 1.89124C128.575 1.68068 130.075 1.93734 131.394 2.62531C132.362 3.12824 133.204 3.84296 133.86 4.7167H136.012C134.967 2.79843 133.26 1.32933 131.212 0.585152C129.165 -0.159022 126.917 -0.127099 124.892 0.674929C122.866 1.47696 121.201 2.99394 120.21 4.94114C119.219 6.88834 118.97 9.13186 119.509 11.2506C120.048 13.3693 121.339 15.2176 123.139 16.4484C124.938 17.6793 127.124 18.2081 129.284 17.9356C131.445 17.6631 133.432 16.6081 134.873 14.9685C136.314 13.3289 137.109 11.2176 137.11 9.03075V9.03075H126.34V10.5884Z" fill="#004FB5"/>
<path d="M30.0432 6.44927C29.4993 4.5876 28.3696 2.95295 26.8232 1.79011C25.2768 0.627257 23.3969 -0.0012207 21.4651 -0.0012207C19.5332 -0.0012207 17.6534 0.627257 16.107 1.79011C14.5606 2.95295 13.4309 4.5876 12.887 6.44927C12.4959 7.78786 12.4208 9.19956 12.6677 10.5724C12.9145 11.9452 13.4765 13.2414 14.309 14.358C15.1416 15.4747 16.2218 16.3812 17.4639 17.0056C18.7061 17.6299 20.076 17.955 21.4651 17.955C22.8541 17.955 24.2241 17.6299 25.4662 17.0056C26.7084 16.3812 27.7886 15.4747 28.6211 14.358C29.4536 13.2414 30.0156 11.9452 30.2625 10.5724C30.5093 9.19956 30.4342 7.78786 30.0432 6.44927V6.44927ZM26.5579 14.0623C25.4646 15.1613 24.0463 15.8753 22.5153 16.0975C20.9843 16.3197 19.4228 16.038 18.0644 15.2948C16.7061 14.5515 15.6238 13.3865 14.9796 11.974C14.3353 10.5616 14.1638 8.97767 14.4905 7.45915C14.8172 5.94064 15.6247 4.56917 16.7922 3.54991C17.9596 2.53066 19.4243 1.9184 20.967 1.80472C22.5098 1.69104 24.0478 2.08205 25.3508 2.91927C26.6539 3.75649 27.6521 4.99491 28.196 6.44927C28.6806 7.74209 28.7839 9.14782 28.4933 10.4981C28.2028 11.8483 27.5308 13.0858 26.5579 14.0623" fill="#004FB5"/>
<path d="M48.6713 6.44927C48.1275 4.5876 46.9977 2.95295 45.4513 1.79011C43.9049 0.627257 42.0251 -0.0012207 40.0932 -0.0012207C38.1614 -0.0012207 36.2815 0.627257 34.7351 1.79011C33.1888 2.95295 32.059 4.5876 31.5152 6.44927C31.1241 7.78786 31.049 9.19956 31.2959 10.5724C31.5427 11.9452 32.1047 13.2414 32.9372 14.358C33.7698 15.4747 34.85 16.3812 36.0921 17.0056C37.3343 17.6299 38.7042 17.955 40.0932 17.955C41.4823 17.955 42.8522 17.6299 44.0944 17.0056C45.3365 16.3812 46.4167 15.4747 47.2493 14.358C48.0818 13.2414 48.6438 11.9452 48.8906 10.5724C49.1375 9.19956 49.0624 7.78786 48.6713 6.44927V6.44927ZM45.1861 14.0623C44.0928 15.1613 42.6745 15.8753 41.1435 16.0975C39.6125 16.3197 38.051 16.038 36.6926 15.2948C35.3342 14.5515 34.252 13.3865 33.6078 11.974C32.9635 10.5616 32.7919 8.97767 33.1187 7.45915C33.4454 5.94064 34.2529 4.56917 35.4203 3.54991C36.5878 2.53066 38.0524 1.9184 39.5952 1.80472C41.138 1.69104 42.6759 2.08205 43.979 2.91927C45.2821 3.75649 46.2802 4.99491 46.8241 6.44927C47.3088 7.74209 47.412 9.14782 47.1215 10.4981C46.831 11.8483 46.159 13.0858 45.1861 14.0623Z" fill="#004FB5"/>
<path d="M108.766 1.09385C107.405 0.348918 105.875 -0.0278526 104.325 0.000514715C102.775 0.028882 101.259 0.461412 99.9264 1.25566C98.5934 2.04991 97.4889 3.17858 96.7213 4.53091C95.9537 5.88325 95.5494 7.41278 95.5481 8.9694C95.5467 10.5551 95.9636 12.1128 96.7562 13.4842C97.5488 14.8556 98.6889 15.9917 100.061 16.777C101.432 17.5623 102.987 17.9687 104.565 17.9549C106.144 17.9412 107.691 17.5077 109.049 16.6986C110.407 15.8896 111.527 14.7337 112.296 13.3487C113.065 11.9637 113.455 10.3989 113.426 8.81353C113.397 7.22812 112.951 5.67864 112.132 4.32269C111.314 2.96674 110.152 1.85269 108.766 1.09385V1.09385ZM107.442 15.5324C106.469 15.9597 105.414 16.1647 104.353 16.1324C103.292 16.1 102.251 15.8312 101.306 15.3454C100.362 14.8596 99.536 14.1689 98.8895 13.3234C98.243 12.4778 97.7918 11.4984 97.5684 10.4562C97.345 9.41399 97.3551 8.33493 97.598 7.2971C97.8408 6.25928 98.3104 5.28865 98.9726 4.45543C99.6348 3.62222 100.473 2.94726 101.427 2.47938C102.381 2.01151 103.426 1.76242 104.488 1.75015C105.506 1.75314 106.512 1.97077 107.442 2.38894C108.702 2.95668 109.772 3.87829 110.522 5.04272C111.273 6.20715 111.672 7.56473 111.672 8.9519C111.672 10.3391 111.273 11.6966 110.522 12.8611C109.772 14.0255 108.702 14.9471 107.442 15.5149" fill="#004FB5"/>
<path d="M154.911 4.68161C154.143 3.26547 153.01 2.08326 151.63 1.25941C150.25 0.435547 148.674 0.000497847 147.069 3.90987e-05C145.574 -0.00441596 144.102 0.371917 142.791 1.09387C141.238 1.94368 139.972 3.2367 139.151 4.80944C138.33 6.38218 137.992 8.16401 138.18 9.92962C138.368 11.6952 139.072 13.3653 140.205 14.7287C141.338 16.0921 142.847 17.0876 144.543 17.5893C146.239 18.091 148.045 18.0763 149.733 17.5472C151.421 17.0181 152.914 15.9983 154.025 14.6167C155.136 13.2351 155.813 11.5538 155.973 9.78538C156.132 8.01696 155.765 6.24085 154.919 4.68161H154.911ZM153.595 11.9446C152.866 13.5672 151.564 14.8613 149.942 15.578C148.319 16.2946 146.49 16.383 144.806 15.8262C143.122 15.2694 141.703 14.1068 140.822 12.5621C139.941 11.0174 139.66 9.19992 140.033 7.45956C140.406 5.71919 141.407 4.179 142.843 3.1355C144.279 2.092 146.049 1.61898 147.812 1.80751C149.574 1.99604 151.205 2.83279 152.39 4.15665C153.576 5.48052 154.231 7.19791 154.231 8.97816C154.231 10.0011 154.014 11.0124 153.595 11.9446" fill="#004FB5"/>
<path d="M27.621 8.97818C27.6222 9.79022 27.4639 10.5945 27.1553 11.3451C26.8466 12.0956 26.3937 12.7777 25.8224 13.3523C25.251 13.9269 24.5725 14.3827 23.8256 14.6938C23.0787 15.0048 22.2781 15.1649 21.4695 15.1649C20.659 15.1665 19.8563 15.0058 19.1083 14.6923C17.9836 14.2236 17.0225 13.4306 16.3464 12.4136C15.6702 11.3966 15.3093 10.2011 15.3093 8.97818C15.3093 7.75529 15.6702 6.55982 16.3464 5.54279C17.0225 4.52575 17.9836 3.73278 19.1083 3.26404C19.8573 2.95404 20.6594 2.79354 21.4695 2.7915C23.1018 2.79382 24.6664 3.44666 25.8198 4.60663C26.9732 5.76661 27.621 7.33889 27.621 8.97818V8.97818Z" fill="#FFC600"/>
<path d="M46.2495 8.97828C46.2491 10.5116 45.6809 11.99 44.6554 13.126C43.63 14.2619 42.2205 14.9744 40.7011 15.1247C39.1817 15.275 37.661 14.8525 36.4345 13.9393C35.208 13.0262 34.3635 11.6876 34.0652 10.1838C33.7668 8.68005 34.0359 7.11859 34.8202 5.80303C35.6044 4.48747 36.8478 3.51182 38.3085 3.06577C39.7693 2.61972 41.343 2.73515 42.7237 3.38962C44.1044 4.04409 45.1934 5.19082 45.779 6.60686C46.0896 7.35856 46.2495 8.16442 46.2495 8.97828V8.97828Z" fill="#FFC600"/>
<path d="M110.657 8.97818C110.656 10.203 110.293 11.4001 109.616 12.4185C108.938 13.437 107.976 14.2312 106.849 14.7011C106.102 15.0065 105.303 15.164 104.497 15.1649C102.863 15.1649 101.296 14.5131 100.141 13.3528C98.9857 12.1926 98.3367 10.619 98.3367 8.97818C98.3367 7.33737 98.9857 5.76377 100.141 4.60354C101.296 3.44331 102.863 2.7915 104.497 2.7915C105.304 2.79104 106.104 2.95166 106.849 3.26404C107.976 3.73144 108.939 4.52383 109.616 5.54097C110.294 6.55811 110.656 7.75429 110.657 8.97818V8.97818Z" fill="#C00D1E"/>
<path d="M152.749 6.61554C152.284 5.48442 151.495 4.51733 150.482 3.83664C149.469 3.15595 148.278 2.79224 147.06 2.79153C146.252 2.78918 145.452 2.94988 144.707 3.26406C143.773 3.65382 142.949 4.2685 142.308 5.05383C141.666 5.83917 141.228 6.77099 141.03 7.76705C140.832 8.76311 140.881 9.79275 141.174 10.7651C141.466 11.7374 141.992 12.6225 142.706 13.3423C143.419 14.062 144.298 14.5942 145.265 14.892C146.232 15.1897 147.257 15.2438 148.25 15.0495C149.242 14.8551 150.172 14.4183 150.957 13.7776C151.742 13.137 152.357 12.3121 152.749 11.3759C152.906 11.0104 153.023 10.629 153.098 10.2383C153.178 9.83496 153.219 9.42461 153.22 9.01321C153.225 8.19036 153.065 7.37492 152.749 6.61554V6.61554Z" fill="#169062"/>
<path d="M145.37 14.0274V3.92041L150.406 8.96951L145.37 14.0274Z" fill="white"/>
</g>
<defs>
<clipPath id="clip0_1149_23356">
<rect width="156" height="18" fill="white"/>
</clipPath>
</defs>
</svg>
